<svg id="visual" viewBox="0 0 960 540" width="960" height="540" xmlns="http://www.w3.org/2000/svg" xmlns:xlink="http://www.w3.org/1999/xlink" version="1.1"><rect x="0" y="0" width="960" height="540" fill="#001220"></rect><path d="M0 461L7.7 463.5C15.3 466 30.7 471 45.8 471.2C61 471.3 76 466.7 91.2 464.5C106.3 462.3 121.7 462.7 137 462.5C152.3 462.3 167.7 461.7 183 463.8C198.3 466 213.7 471 228.8 473C244 475 259 474 274.2 470C289.3 466 304.7 459 320 457.5C335.3 456 350.7 460 365.8 462.3C381 464.7 396 465.3 411.2 467C426.3 468.7 441.7 471.3 457 472.8C472.3 474.3 487.7 474.7 503 470.2C518.3 465.7 533.7 456.3 548.8 453C564 449.7 579 452.3 594.2 458.7C609.3 465 624.7 475 640 476.2C655.3 477.3 670.7 469.7 685.8 466.7C701 463.7 716 465.3 731.2 466.8C746.3 468.3 761.7 469.7 777 472.8C792.3 476 807.7 481 823 479.3C838.3 477.7 853.7 469.3 868.8 468C884 466.7 899 472.3 914.2 470.5C929.3 468.7 944.7 459.3 952.3 454.7L960 450L960 541L952.3 541C944.7 541 929.3 541 914.2 541C899 541 884 541 868.8 541C853.7 541 838.3 541 823 541C807.7 541 792.3 541 777 541C761.7 541 746.3 541 731.2 541C716 541 701 541 685.8 541C670.7 541 655.3 541 640 541C624.7 541 609.3 541 594.2 541C579 541 564 541 548.8 541C533.7 541 518.3 541 503 541C487.7 541 472.3 541 457 541C441.7 541 426.3 541 411.2 541C396 541 381 541 365.8 541C350.7 541 335.3 541 320 541C304.7 541 289.3 541 274.2 541C259 541 244 541 228.8 541C213.7 541 198.3 541 183 541C167.7 541 152.3 541 137 541C121.7 541 106.3 541 91.2 541C76 541 61 541 45.8 541C30.7 541 15.3 541 7.7 541L0 541Z" fill="#00ffff"></path><path d="M0 470L7.7 474C15.3 478 30.7 486 45.8 487C61 488 76 482 91.2 476.5C106.3 471 121.7 466 137 467.5C152.3 469 167.7 477 183 477C198.3 477 213.7 469 228.8 465.2C244 461.3 259 461.7 274.2 464.2C289.3 466.7 304.7 471.3 320 474.2C335.3 477 350.7 478 365.8 478.5C381 479 396 479 411.2 481.7C426.3 484.3 441.7 489.7 457 491.5C472.3 493.3 487.7 491.7 503 489.8C518.3 488 533.7 486 548.8 482.7C564 479.3 579 474.7 594.2 473C609.3 471.3 624.7 472.7 640 475.7C655.3 478.7 670.7 483.3 685.8 483C701 482.7 716 477.3 731.2 474.8C746.3 472.3 761.7 472.7 777 475C792.3 477.3 807.7 481.7 823 479.8C838.3 478 853.7 470 868.8 471.2C884 472.3 899 482.7 914.2 488C929.3 493.3 944.7 493.7 952.3 493.8L960 494L960 541L952.3 541C944.7 541 929.3 541 914.2 541C899 541 884 541 868.8 541C853.7 541 838.3 541 823 541C807.7 541 792.3 541 777 541C761.7 541 746.3 541 731.2 541C716 541 701 541 685.8 541C670.7 541 655.3 541 640 541C624.7 541 609.3 541 594.2 541C579 541 564 541 548.8 541C533.7 541 518.3 541 503 541C487.7 541 472.3 541 457 541C441.7 541 426.3 541 411.2 541C396 541 381 541 365.8 541C350.7 541 335.3 541 320 541C304.7 541 289.3 541 274.2 541C259 541 244 541 228.8 541C213.7 541 198.3 541 183 541C167.7 541 152.3 541 137 541C121.7 541 106.3 541 91.2 541C76 541 61 541 45.8 541C30.7 541 15.3 541 7.7 541L0 541Z" fill="#00e0ff"></path><path d="M0 474L7.7 475.2C15.3 476.3 30.7 478.7 45.8 479.8C61 481 76 481 91.2 481.3C106.3 481.7 121.7 482.3 137 486.3C152.3 490.3 167.7 497.7 183 498.2C198.3 498.7 213.7 492.3 228.8 490.5C244 488.7 259 491.3 274.2 490.2C289.3 489 304.7 484 320 483.5C335.3 483 350.7 487 365.8 489.2C381 491.3 396 491.7 411.2 493.7C426.3 495.7 441.7 499.3 457 500.8C472.3 502.3 487.7 501.7 503 501C518.3 500.3 533.7 499.7 548.8 500.3C564 501 579 503 594.2 503.5C609.3 504 624.7 503 640 500.5C655.3 498 670.7 494 685.8 492.7C701 491.3 716 492.7 731.2 492.2C746.3 491.7 761.7 489.3 777 488.2C792.3 487 807.7 487 823 487.2C838.3 487.3 853.7 487.7 868.8 487.7C884 487.7 899 487.3 914.2 490C929.3 492.7 944.7 498.3 952.3 501.2L960 504L960 541L952.3 541C944.7 541 929.3 541 914.2 541C899 541 884 541 868.8 541C853.7 541 838.3 541 823 541C807.7 541 792.3 541 777 541C761.7 541 746.3 541 731.2 541C716 541 701 541 685.8 541C670.7 541 655.3 541 640 541C624.7 541 609.3 541 594.2 541C579 541 564 541 548.8 541C533.7 541 518.3 541 503 541C487.7 541 472.3 541 457 541C441.7 541 426.3 541 411.2 541C396 541 381 541 365.8 541C350.7 541 335.3 541 320 541C304.7 541 289.3 541 274.2 541C259 541 244 541 228.8 541C213.7 541 198.3 541 183 541C167.7 541 152.3 541 137 541C121.7 541 106.3 541 91.2 541C76 541 61 541 45.8 541C30.7 541 15.3 541 7.7 541L0 541Z" fill="#00beff"></path><path d="M0 499L7.7 498.7C15.3 498.3 30.7 497.7 45.8 497C61 496.3 76 495.7 91.2 497.5C106.3 499.3 121.7 503.7 137 505.7C152.3 507.7 167.7 507.3 183 505.5C198.3 503.7 213.7 500.3 228.8 499C244 497.7 259 498.3 274.2 500.7C289.3 503 304.7 507 320 507.5C335.3 508 350.7 505 365.8 501.2C381 497.3 396 492.7 411.2 491.2C426.3 489.7 441.7 491.3 457 492.8C472.3 494.3 487.7 495.7 503 498.5C518.3 501.3 533.7 505.7 548.8 507.8C564 510 579 510 594.2 507.5C609.3 505 624.7 500 640 496.7C655.3 493.3 670.7 491.7 685.8 493.5C701 495.3 716 500.7 731.2 503.8C746.3 507 761.7 508 777 506.5C792.3 505 807.7 501 823 498.8C838.3 496.7 853.7 496.3 868.8 498.5C884 500.7 899 505.3 914.2 505.3C929.3 505.3 944.7 500.7 952.3 498.3L960 496L960 541L952.3 541C944.7 541 929.3 541 914.2 541C899 541 884 541 868.8 541C853.7 541 838.3 541 823 541C807.7 541 792.3 541 777 541C761.7 541 746.3 541 731.2 541C716 541 701 541 685.8 541C670.7 541 655.3 541 640 541C624.7 541 609.3 541 594.2 541C579 541 564 541 548.8 541C533.7 541 518.3 541 503 541C487.7 541 472.3 541 457 541C441.7 541 426.3 541 411.2 541C396 541 381 541 365.8 541C350.7 541 335.3 541 320 541C304.7 541 289.3 541 274.2 541C259 541 244 541 228.8 541C213.7 541 198.3 541 183 541C167.7 541 152.3 541 137 541C121.7 541 106.3 541 91.2 541C76 541 61 541 45.8 541C30.7 541 15.3 541 7.7 541L0 541Z" fill="#0098ff"></path><path d="M0 521L7.7 518.5C15.3 516 30.7 511 45.8 509.7C61 508.3 76 510.7 91.2 510.8C106.3 511 121.7 509 137 507.3C152.3 505.7 167.7 504.3 183 504.3C198.3 504.3 213.7 505.7 228.8 505.5C244 505.3 259 503.7 274.2 503.5C289.3 503.3 304.7 504.7 320 506.7C335.3 508.7 350.7 511.3 365.8 511.3C381 511.3 396 508.7 411.2 506.5C426.3 504.3 441.7 502.7 457 502.5C472.3 502.3 487.7 503.7 503 504.8C518.3 506 533.7 507 548.8 509.2C564 511.3 579 514.7 594.2 516.2C609.3 517.7 624.7 517.3 640 516C655.3 514.7 670.7 512.3 685.8 513C701 513.7 716 517.3 731.2 516.2C746.3 515 761.7 509 777 506.5C792.3 504 807.7 505 823 507.5C838.3 510 853.7 514 868.8 514C884 514 899 510 914.2 510.2C929.3 510.3 944.7 514.7 952.3 516.8L960 519L960 541L952.3 541C944.7 541 929.3 541 914.2 541C899 541 884 541 868.8 541C853.7 541 838.3 541 823 541C807.7 541 792.3 541 777 541C761.7 541 746.3 541 731.2 541C716 541 701 541 685.8 541C670.7 541 655.3 541 640 541C624.7 541 609.3 541 594.2 541C579 541 564 541 548.8 541C533.7 541 518.3 541 503 541C487.7 541 472.3 541 457 541C441.7 541 426.3 541 411.2 541C396 541 381 541 365.8 541C350.7 541 335.3 541 320 541C304.7 541 289.3 541 274.2 541C259 541 244 541 228.8 541C213.7 541 198.3 541 183 541C167.7 541 152.3 541 137 541C121.7 541 106.3 541 91.2 541C76 541 61 541 45.8 541C30.7 541 15.3 541 7.7 541L0 541Z" fill="#0068ff"></path><path d="M0 527L7.7 526.2C15.3 525.3 30.7 523.7 45.8 524.5C61 525.3 76 528.7 91.2 528.2C106.3 527.7 121.7 523.3 137 521.3C152.3 519.3 167.7 519.7 183 520C198.3 520.3 213.7 520.7 228.8 522C244 523.3 259 525.7 274.2 527C289.3 528.3 304.7 528.7 320 528.3C335.3 528 350.7 527 365.8 524.8C381 522.7 396 519.3 411.2 517.8C426.3 516.3 441.7 516.7 457 517.3C472.3 518 487.7 519 503 520.3C518.3 521.7 533.7 523.3 548.8 523C564 522.7 579 520.3 594.2 519.5C609.3 518.7 624.7 519.3 640 520.5C655.3 521.7 670.7 523.3 685.8 525.3C701 527.3 716 529.7 731.2 530.7C746.3 531.7 761.7 531.3 777 530.5C792.3 529.7 807.7 528.3 823 526.5C838.3 524.7 853.7 522.3 868.8 520.8C884 519.3 899 518.7 914.2 518.8C929.3 519 944.7 520 952.3 520.5L960 521L960 541L952.3 541C944.7 541 929.3 541 914.2 541C899 541 884 541 868.8 541C853.7 541 838.3 541 823 541C807.7 541 792.3 541 777 541C761.7 541 746.3 541 731.2 541C716 541 701 541 685.8 541C670.7 541 655.3 541 640 541C624.7 541 609.3 541 594.2 541C579 541 564 541 548.8 541C533.7 541 518.3 541 503 541C487.7 541 472.3 541 457 541C441.7 541 426.3 541 411.2 541C396 541 381 541 365.8 541C350.7 541 335.3 541 320 541C304.7 541 289.3 541 274.2 541C259 541 244 541 228.8 541C213.7 541 198.3 541 183 541C167.7 541 152.3 541 137 541C121.7 541 106.3 541 91.2 541C76 541 61 541 45.8 541C30.7 541 15.3 541 7.7 541L0 541Z" fill="#0000ff"></path></svg>