<svg id="visual" viewBox="0 0 900 600" width="900" height="600" xmlns="http://www.w3.org/2000/svg" xmlns:xlink="http://www.w3.org/1999/xlink" version="1.1"><path d="M0 514L6.8 511C13.7 508 27.3 502 41 492.8C54.7 483.7 68.3 471.3 82 461.3C95.7 451.3 109.3 443.7 123 449.3C136.7 455 150.3 474 164 475.2C177.7 476.3 191.3 459.7 204.8 452.5C218.3 445.3 231.7 447.7 245.2 451.3C258.7 455 272.3 460 286 467.7C299.7 475.3 313.3 485.7 327 489C340.7 492.3 354.3 488.7 368 490.2C381.7 491.7 395.3 498.3 409 489.5C422.7 480.7 436.3 456.3 450 449C463.7 441.7 477.3 451.3 491 458.2C504.7 465 518.3 469 532 478.5C545.7 488 559.3 503 573 511.3C586.7 519.7 600.3 521.3 614 512.3C627.7 503.3 641.3 483.7 654.8 472.2C668.3 460.7 681.7 457.3 695.2 452.3C708.7 447.3 722.3 440.7 736 437.2C749.7 433.7 763.3 433.3 777 445.3C790.7 457.3 804.3 481.7 818 486C831.7 490.3 845.3 474.7 859 462.7C872.7 450.7 886.3 442.3 893.2 438.2L900 434L900 601L893.2 601C886.3 601 872.7 601 859 601C845.3 601 831.7 601 818 601C804.3 601 790.7 601 777 601C763.3 601 749.7 601 736 601C722.3 601 708.7 601 695.2 601C681.7 601 668.3 601 654.8 601C641.3 601 627.7 601 614 601C600.3 601 586.7 601 573 601C559.3 601 545.7 601 532 601C518.3 601 504.7 601 491 601C477.3 601 463.7 601 450 601C436.3 601 422.7 601 409 601C395.3 601 381.7 601 368 601C354.3 601 340.7 601 327 601C313.3 601 299.7 601 286 601C272.3 601 258.7 601 245.2 601C231.7 601 218.3 601 204.8 601C191.3 601 177.7 601 164 601C150.3 601 136.7 601 123 601C109.3 601 95.7 601 82 601C68.3 601 54.7 601 41 601C27.3 601 13.7 601 6.8 601L0 601Z" fill="#00ffff" stroke-linecap="round" stroke-linejoin="miter"></path></svg>